<svg id="Ebene_1" data-name="Ebene 1" xmlns="http://www.w3.org/2000/svg" viewBox="0 0 30 39.67"><defs><style>.cls-1,.cls-2{fill:none;stroke:#000;stroke-miterlimit:10;}.cls-1{stroke-width:4px;}.cls-2{stroke-width:2px;}</style></defs><path class="cls-1" d="M16.88,16H33.12A4.87,4.87,0,0,1,38,20.88V39.56A2.44,2.44,0,0,1,35.56,42H14.44A2.44,2.44,0,0,1,12,39.56V20.88A4.87,4.87,0,0,1,16.88,16Z" transform="translate(-10 -4.33)"/><path class="cls-2" d="M28,28a3,3,0,1,0-5,2.22v2.86a2,2,0,0,0,4,0V30.22A3,3,0,0,0,28,28Z" transform="translate(-10 -4.33)"/><path class="cls-1" d="M34.81,16.14h0A9.81,9.81,0,0,0,25,6.33h0a9.81,9.81,0,0,0-9.81,9.81h0" transform="translate(-10 -4.33)"/></svg>